<?xml version="1.0" encoding="UTF-8"?><svg id="a" xmlns="http://www.w3.org/2000/svg" viewBox="0 0 170.26 75.28"><defs><style>.b{fill:#fff;}.c{fill:#d14311;}.d{fill:#243763;}</style></defs><g><g><path class="d" d="M68.39,19.27h4.28v14.5c0,1.25,.11,2.13,.33,2.65,.22,.52,.58,.93,1.08,1.24,.5,.31,1.11,.46,1.82,.46,.75,0,1.4-.17,1.94-.52s.92-.78,1.13-1.32c.21-.53,.31-1.55,.31-3.05v-13.97h4.28v13.37c0,2.26-.13,3.82-.38,4.69-.25,.87-.74,1.72-1.46,2.53s-1.54,1.41-2.48,1.81c-.93,.39-2.02,.59-3.26,.59-1.63,0-3.04-.37-4.25-1.12-1.2-.75-2.06-1.68-2.58-2.8-.52-1.12-.78-3.02-.78-5.69v-13.37Z"/><path class="d" d="M88.07,25.1h4.16v1.7c.94-.8,1.8-1.35,2.56-1.66,.77-.31,1.55-.47,2.35-.47,1.64,0,3.04,.57,4.19,1.72,.96,.98,1.45,2.42,1.45,4.33v10.96h-4.12v-7.26c0-1.98-.09-3.29-.27-3.94s-.49-1.15-.93-1.49c-.44-.34-.99-.51-1.64-.51-.84,0-1.56,.28-2.17,.85s-1.02,1.34-1.25,2.34c-.12,.52-.18,1.64-.18,3.36v6.65h-4.16V25.1Z"/><path class="d" d="M108.43,19.27c.65,0,1.21,.24,1.67,.71,.46,.47,.7,1.04,.7,1.71s-.23,1.23-.69,1.69c-.46,.47-1.01,.7-1.65,.7s-1.22-.24-1.69-.71c-.46-.48-.7-1.05-.7-1.73s.23-1.21,.69-1.67c.46-.46,1.02-.69,1.67-.69Zm-2.08,5.84h4.16v16.58h-4.16V25.1Z"/><path class="d" d="M126.53,25.1h4.16v22.65h-4.16v-7.82c-.81,.77-1.63,1.33-2.44,1.67-.82,.34-1.7,.51-2.66,.51-2.14,0-3.99-.83-5.56-2.49-1.56-1.66-2.34-3.73-2.34-6.2s.76-4.66,2.27-6.29c1.51-1.64,3.35-2.45,5.51-2.45,1,0,1.93,.19,2.8,.56,.87,.38,1.68,.94,2.42,1.69v-1.83Zm-4.38,3.41c-1.29,0-2.35,.45-3.2,1.36-.85,.91-1.28,2.08-1.28,3.5s.43,2.61,1.3,3.54c.87,.92,1.93,1.39,3.2,1.39s2.39-.45,3.25-1.36c.86-.91,1.29-2.1,1.29-3.58s-.43-2.61-1.29-3.5c-.86-.9-1.95-1.34-3.27-1.34Z"/><path class="d" d="M134.88,25.1h4.21v7.99c0,1.55,.11,2.64,.32,3.24,.21,.6,.56,1.07,1.03,1.41s1.06,.5,1.75,.5,1.28-.16,1.76-.5,.84-.82,1.08-1.46c.17-.48,.26-1.5,.26-3.06v-8.12h4.16v7.03c0,2.9-.23,4.88-.69,5.94-.56,1.3-1.38,2.3-2.47,2.99-1.09,.7-2.47,1.05-4.15,1.05-1.82,0-3.29-.41-4.41-1.22-1.12-.81-1.91-1.95-2.37-3.4-.32-1.01-.49-2.84-.49-5.49v-6.9Z"/><path class="d" d="M170.25,34.6h-13.37c.19,1.18,.71,2.12,1.55,2.81,.84,.7,1.91,1.04,3.21,1.04,1.55,0,2.89-.54,4.01-1.63l3.51,1.65c-.87,1.24-1.92,2.16-3.14,2.75-1.22,.59-2.67,.89-4.34,.89-2.6,0-4.72-.82-6.36-2.46-1.64-1.64-2.45-3.7-2.45-6.17s.82-4.63,2.45-6.3c1.63-1.67,3.68-2.51,6.14-2.51,2.61,0,4.74,.84,6.37,2.51,1.64,1.67,2.45,3.88,2.45,6.62v.79Zm-4.18-3.28c-.27-.92-.82-1.68-1.63-2.26s-1.75-.87-2.82-.87c-1.16,0-2.18,.33-3.05,.98-.55,.41-1.06,1.12-1.53,2.15h9.02Z"/></g><g><path class="b" d="M82.1,55.34l-3.16,2.79c-1.11-1.55-2.24-2.32-3.39-2.32-.56,0-1.02,.15-1.37,.45s-.53,.64-.53,1.01,.13,.73,.38,1.07c.35,.45,1.39,1.41,3.13,2.88,1.63,1.36,2.62,2.22,2.96,2.58,.87,.87,1.48,1.71,1.84,2.51,.36,.8,.54,1.67,.54,2.61,0,1.84-.64,3.36-1.91,4.56-1.27,1.2-2.93,1.8-4.97,1.8-1.6,0-2.99-.39-4.17-1.17-1.19-.78-2.2-2.01-3.04-3.69l3.59-2.16c1.08,1.98,2.32,2.97,3.73,2.97,.73,0,1.35-.21,1.85-.64,.5-.43,.75-.92,.75-1.48,0-.51-.19-1.02-.56-1.52-.38-.51-1.21-1.29-2.49-2.33-2.44-1.99-4.02-3.53-4.73-4.61-.71-1.08-1.07-2.16-1.07-3.24,0-1.55,.59-2.89,1.78-4s2.65-1.67,4.39-1.67c1.12,0,2.19,.26,3.2,.78,1.01,.52,2.11,1.46,3.29,2.84Z"/><path class="b" d="M93.89,57.71c1.56,0,3.04,.39,4.41,1.17,1.38,.78,2.45,1.84,3.22,3.19,.77,1.34,1.16,2.79,1.16,4.34s-.39,3.03-1.17,4.39-1.84,2.43-3.18,3.19c-1.34,.77-2.82,1.15-4.43,1.15-2.31,0-4.52-.93-6.14-2.58-1.72-1.75-2.54-3.88-2.48-6.39,.06-2.38,1.09-4.62,2.85-6.22,1.66-1.5,3.58-2.25,5.74-2.25Zm.07,3.92c-1.29,0-2.37,.45-3.23,1.35-.86,.9-1.29,2.05-1.29,3.45s.43,2.61,1.28,3.51c.85,.9,1.93,1.34,3.23,1.34s2.39-.45,3.25-1.36c.86-.9,1.3-2.07,1.3-3.49s-.42-2.58-1.27-3.47c-.85-.89-1.94-1.33-3.26-1.33Z"/><path class="b" d="M104.11,58.13h1.48c.01-2.18,.05-3.46,.11-3.86,.11-.91,.5-1.64,1.15-2.17,.66-.53,1.58-.8,2.78-.8,.86,0,1.84,.2,2.93,.6v3.17c-.6-.17-1.09-.26-1.48-.26-.49,0-.84,.1-1.07,.3-.16,.15-.24,.47-.24,.95v2.07h2.62v3.52h-2.64v13.06h-4.16v-13.06h-1.48v-3.52Z"/><path class="b" d="M115.32,52.02h4.16v6.11h2.47v3.58h-2.47v13h-4.16v-13h-2.13v-3.58h2.13v-6.11Z"/></g></g><g><g><polygon class="c" points="34.52 0 22.72 15.2 34.52 15.2 34.52 0"/><path class="d" d="M16.78,44.91V22.11c0-2.02-1.64-3.66-3.66-3.66H0v26.5c0,15.97,12.36,29.1,28.02,30.34v-16.91c-6.39-1.16-11.24-6.76-11.24-13.47Z"/><path class="b" d="M47.62,0h-13.1V52.01h16.78V3.68C51.29,1.65,49.65,0,47.62,0Z"/></g><g><path class="d" d="M49.04,75.28c-.6,0-1.17-.24-1.6-.66-.43-.43-.66-.99-.66-1.6s.23-1.17,.66-1.6c.43-.43,.99-.66,1.6-.66s1.17,.23,1.6,.66c.88,.88,.88,2.31,0,3.19-.43,.43-.99,.66-1.59,.66Z"/><path class="d" d="M36.78,63.25c-.6,0-1.17-.24-1.6-.66-.43-.43-.66-.99-.66-1.6s.23-1.17,.66-1.59c.43-.43,.99-.66,1.6-.66s1.17,.23,1.6,.66c.43,.43,.66,.99,.66,1.6s-.23,1.17-.66,1.6c-.43,.43-.99,.66-1.6,.66Z"/><path class="d" d="M48.94,63.18c-.6,0-1.17-.24-1.6-.66-.88-.88-.88-2.31,0-3.19,.43-.43,.99-.66,1.6-.66s1.17,.23,1.6,.66c.88,.88,.88,2.31,0,3.19-.43,.43-.99,.66-1.6,.66Z"/><path class="d" d="M36.83,75.28c-.6,0-1.17-.24-1.6-.66-.43-.43-.66-.99-.66-1.6,0-.6,.24-1.17,.66-1.6,.09-.09,.19-.17,.32-.26,.04-.03,.07-.05,.11-.07,.08-.05,.17-.09,.24-.13,.04-.02,.09-.04,.13-.06,.08-.03,.17-.06,.28-.08l.06-.02h.03l.5-.04c.06,0,.13,.01,.2,.02h.03s.04,0,.06,0h.06s.07,0,.11,0c.87,0,1.72-.37,2.35-1.01,.62-.64,.96-1.5,.94-2.36v-.05s-.01-.05-.01-.07c0-.03,0-.06,0-.09v-.05s-.02-.09-.02-.13l.04-.5s0-.02,.01-.04v-.03c.03-.1,.06-.19,.09-.28,.02-.05,.04-.09,.06-.13,.04-.09,.08-.17,.13-.25,.02-.04,.04-.07,.07-.11,.09-.13,.17-.23,.26-.32,.43-.43,.99-.66,1.6-.66s1.17,.23,1.6,.66c.88,.88,.88,2.31,0,3.19-.09,.09-.19,.17-.32,.26-.04,.03-.07,.05-.11,.07-.08,.05-.16,.09-.24,.13-.04,.02-.09,.04-.13,.06-.09,.03-.18,.06-.27,.08l-.05,.02h-.04l-.51,.05c-.06,0-.12-.01-.19-.02h-.05s-.04,0-.06-.01h-.06s-.07,0-.11,0c-.87,0-1.72,.37-2.35,1.01-.62,.64-.97,1.5-.94,2.36v.05s.01,.05,.01,.07c0,.03,0,.06,0,.09,0,.02,0,.05,0,.08,0,.03,0,.07,0,.1h0l-.04,.5s-.02,.07-.02,.08c-.02,.1-.05,.2-.08,.28-.02,.05-.03,.09-.05,.13-.04,.09-.08,.17-.13,.25-.02,.03-.05,.07-.07,.11-.08,.12-.17,.22-.26,.31-.43,.43-.99,.66-1.6,.66h0Z"/><path class="d" d="M42.93,75.28c-.6,0-1.17-.24-1.6-.66-.43-.43-.66-.99-.66-1.6,0-.6,.23-1.17,.66-1.59,.09-.09,.19-.17,.32-.26,.03-.02,.07-.04,.11-.07,.08-.05,.16-.09,.25-.13,.04-.02,.09-.04,.13-.06,.08-.03,.18-.06,.27-.08,0,0,.08-.02,.09-.03l.51-.04c.06,0,.13,.01,.19,.02h.04s.05,0,.07,0h.06s.08,0,.11,0c.86,0,1.72-.37,2.34-1.01,.62-.64,.96-1.5,.94-2.36v-.11h-.01v-.02s0-.05,0-.07v-.07s-.02-.08-.02-.12l.04-.49s.02-.07,.02-.09c.03-.12,.05-.2,.08-.28,.02-.05,.04-.09,.06-.13,.04-.08,.08-.16,.13-.25v-.02s.04-.06,.06-.09c.09-.13,.17-.24,.26-.32,.43-.43,.99-.66,1.6-.66s1.17,.23,1.6,.66c.88,.88,.88,2.31,0,3.19-.09,.08-.19,.17-.32,.26-.03,.02-.05,.03-.07,.05l-.04,.02c-.08,.04-.16,.09-.24,.12-.05,.02-.09,.04-.13,.06-.08,.03-.17,.05-.28,.08-.02,0-.04,.01-.06,.02h-.04l-.5,.04c-.07,0-.15-.01-.23-.02-.03,0-.05,0-.07,0h-.07s-.07,0-.11,0c-.87,0-1.72,.37-2.34,1.01-.62,.64-.96,1.5-.94,2.36v.05s.01,.05,.01,.08c0,.03,0,.05,0,.08,0,.02,0,.05,0,.08,0,.04,0,.08,.01,.11l-.04,.5s-.02,.08-.02,.08c-.02,.1-.05,.2-.08,.28-.02,.04-.03,.08-.05,.12h0c-.04,.1-.08,.17-.13,.25-.02,.04-.05,.08-.07,.11-.09,.13-.17,.23-.26,.32-.42,.42-.99,.66-1.59,.66h0Z"/><path class="d" d="M36.84,69.19c-.6,0-1.17-.23-1.6-.66-.43-.43-.66-.99-.66-1.6,0-.6,.23-1.17,.66-1.59,.09-.09,.19-.17,.32-.26,.03-.02,.07-.05,.11-.07,.08-.05,.16-.09,.24-.13,.04-.02,.09-.04,.13-.06,.08-.03,.17-.06,.27-.08l.06-.02h.03l.51-.05c.07,0,.14,.01,.21,.02h.02s.05,0,.07,0h.06s.08,0,.11,0c.86,0,1.72-.37,2.34-1.01,.62-.64,.96-1.5,.94-2.36v-.05s-.01-.05-.01-.08c0-.02,0-.05,0-.07v-.07s-.02-.08-.02-.13l.03-.47h0v-.02s.02-.07,.02-.07c.03-.12,.05-.21,.08-.29,.02-.04,.04-.09,.06-.13,.04-.08,.08-.16,.13-.25h0s.04-.08,.06-.11c.09-.13,.17-.23,.26-.32,.43-.43,.99-.66,1.6-.66s1.17,.23,1.6,.66c.88,.88,.88,2.31,0,3.19-.09,.09-.19,.17-.32,.26-.03,.02-.06,.04-.1,.06h-.02c-.08,.06-.16,.1-.24,.14-.05,.02-.09,.04-.13,.06-.08,.03-.17,.06-.28,.08-.02,0-.04,.01-.06,.02h-.04l-.5,.04c-.06,0-.13-.01-.2-.02h-.03s-.04,0-.07,0c0,0-.02,0-.03,0h-.04s-.07,0-.11,0c-.86,0-1.72,.37-2.34,1.01-.62,.64-.96,1.5-.94,2.36v.05s.01,.05,.01,.08c0,.03,0,.05,0,.08,0,.02,0,.05,0,.07,0,.04,0,.07,0,.11l-.04,.49s0,.03-.01,.04v.04c-.04,.11-.06,.2-.09,.28-.02,.04-.04,.09-.06,.13-.04,.08-.08,.16-.13,.24-.02,.04-.05,.08-.07,.11-.09,.13-.17,.23-.26,.32-.43,.43-.99,.66-1.59,.66h0Z"/></g></g></svg>