<svg id="visual" viewBox="0 0 900 600" width="900" height="600" xmlns="http://www.w3.org/2000/svg" xmlns:xlink="http://www.w3.org/1999/xlink" version="1.1"><path d="M0 385L21.5 391.8C43 398.7 86 412.3 128.8 409.3C171.7 406.3 214.3 386.7 257.2 379.7C300 372.7 343 378.3 385.8 385.3C428.7 392.3 471.3 400.7 514.2 401C557 401.3 600 393.7 642.8 389.5C685.7 385.3 728.3 384.7 771.2 389.3C814 394 857 404 878.5 409L900 414L900 601L878.5 601C857 601 814 601 771.2 601C728.3 601 685.7 601 642.8 601C600 601 557 601 514.2 601C471.3 601 428.7 601 385.8 601C343 601 300 601 257.2 601C214.3 601 171.7 601 128.8 601C86 601 43 601 21.5 601L0 601Z" fill="#233661"></path><path d="M0 394L21.5 406.8C43 419.7 86 445.3 128.8 455.5C171.7 465.7 214.3 460.3 257.2 458.8C300 457.3 343 459.7 385.8 457.8C428.7 456 471.3 450 514.2 448.8C557 447.7 600 451.3 642.8 450C685.7 448.7 728.3 442.3 771.2 441C814 439.7 857 443.3 878.5 445.2L900 447L900 601L878.5 601C857 601 814 601 771.2 601C728.3 601 685.7 601 642.8 601C600 601 557 601 514.2 601C471.3 601 428.7 601 385.8 601C343 601 300 601 257.2 601C214.3 601 171.7 601 128.8 601C86 601 43 601 21.5 601L0 601Z" fill="#653e7c"></path><path d="M0 493L21.5 490.2C43 487.3 86 481.7 128.8 482.5C171.7 483.3 214.3 490.7 257.2 488.3C300 486 343 474 385.8 473.3C428.7 472.7 471.3 483.3 514.2 482.8C557 482.3 600 470.7 642.8 465.2C685.7 459.7 728.3 460.3 771.2 457.3C814 454.3 857 447.7 878.5 444.3L900 441L900 601L878.5 601C857 601 814 601 771.2 601C728.3 601 685.7 601 642.8 601C600 601 557 601 514.2 601C471.3 601 428.7 601 385.8 601C343 601 300 601 257.2 601C214.3 601 171.7 601 128.8 601C86 601 43 601 21.5 601L0 601Z" fill="#ac3c7d"></path><path d="M0 526L21.5 520.5C43 515 86 504 128.8 505.5C171.7 507 214.3 521 257.2 522.2C300 523.3 343 511.7 385.8 513C428.7 514.3 471.3 528.7 514.2 530.2C557 531.7 600 520.3 642.8 512.8C685.7 505.3 728.3 501.7 771.2 497.2C814 492.7 857 487.3 878.5 484.7L900 482L900 601L878.5 601C857 601 814 601 771.2 601C728.3 601 685.7 601 642.8 601C600 601 557 601 514.2 601C471.3 601 428.7 601 385.8 601C343 601 300 601 257.2 601C214.3 601 171.7 601 128.8 601C86 601 43 601 21.5 601L0 601Z" fill="#e54462"></path><path d="M0 567L21.5 562.8C43 558.7 86 550.3 128.8 547.2C171.7 544 214.3 546 257.2 547C300 548 343 548 385.8 548.7C428.7 549.3 471.3 550.7 514.2 549.8C557 549 600 546 642.8 544C685.7 542 728.3 541 771.2 546C814 551 857 562 878.5 567.5L900 573L900 601L878.5 601C857 601 814 601 771.2 601C728.3 601 685.7 601 642.8 601C600 601 557 601 514.2 601C471.3 601 428.7 601 385.8 601C343 601 300 601 257.2 601C214.3 601 171.7 601 128.8 601C86 601 43 601 21.5 601L0 601Z" fill="#ff6e31"></path></svg>