<svg id="Layer_1" data-name="Layer 1" xmlns="http://www.w3.org/2000/svg" viewBox="0 0 425.2 206.32"><defs><style>.cls-1{fill:#243763;}.cls-2{fill:#ff6e31;}.cls-3{fill:#d14311;}</style></defs><path class="cls-1" d="M183.58,64.3h9.92V97.87a17.3,17.3,0,0,0,.76,6.14,6.14,6.14,0,0,0,2.51,2.88A7.93,7.93,0,0,0,201,108a8.19,8.19,0,0,0,4.5-1.2,6.27,6.27,0,0,0,2.61-3.05q.74-1.84.73-7.07V64.3h9.92v31c0,5.22-.3,8.84-.88,10.87a16.72,16.72,0,0,1-9.11,10,19.56,19.56,0,0,1-7.55,1.36,18.29,18.29,0,0,1-9.84-2.6,15.13,15.13,0,0,1-6-6.49q-1.8-3.9-1.8-13.18Z"/><path class="cls-1" d="M229.15,77.82h9.64v3.94a22.9,22.9,0,0,1,5.93-3.85,14.39,14.39,0,0,1,5.45-1.08,13.19,13.19,0,0,1,9.69,4q3.34,3.39,3.35,10v25.38h-9.53V99.41q0-6.89-.62-9.13a6.21,6.21,0,0,0-2.14-3.44,6,6,0,0,0-3.79-1.18,7.12,7.12,0,0,0-5,2,10.52,10.52,0,0,0-2.9,5.41,43,43,0,0,0-.42,7.79v15.41h-9.64Z"/><path class="cls-1" d="M276.29,64.3a5.28,5.28,0,0,1,3.88,1.64,5.47,5.47,0,0,1,1.61,4,5.37,5.37,0,0,1-1.6,3.92,5.19,5.19,0,0,1-3.83,1.62,5.27,5.27,0,0,1-3.91-1.65,5.52,5.52,0,0,1-1.62-4,5.5,5.5,0,0,1,5.47-5.48Zm-4.82,13.52h9.63v38.4h-9.63Z"/><path class="cls-1" d="M318.2,77.82h9.63v52.45H318.2V112.16a19.07,19.07,0,0,1-5.66,3.87,16,16,0,0,1-6.15,1.18,17.08,17.08,0,0,1-12.87-5.77,20.14,20.14,0,0,1-5.43-14.35q0-8.9,5.25-14.57a16.71,16.71,0,0,1,12.77-5.69,16.21,16.21,0,0,1,6.48,1.31,17.79,17.79,0,0,1,5.61,3.92Zm-10.13,7.91a9.7,9.7,0,0,0-7.42,3.16,11.32,11.32,0,0,0-3,8.1,11.47,11.47,0,0,0,3,8.18,9.74,9.74,0,0,0,7.4,3.22,9.94,9.94,0,0,0,7.53-3.16,11.58,11.58,0,0,0,3-8.28,11.24,11.24,0,0,0-3-8.12A10,10,0,0,0,308.07,85.73Z"/><path class="cls-1" d="M337.54,77.82h9.74V96.31a25.91,25.91,0,0,0,.74,7.51,6.56,6.56,0,0,0,2.39,3.26,6.82,6.82,0,0,0,4,1.16,7.1,7.1,0,0,0,4.09-1.14,6.74,6.74,0,0,0,2.49-3.37c.41-1.11.61-3.47.61-7.1V77.82h9.63V94.09c0,6.71-.53,11.29-1.59,13.77a15,15,0,0,1-5.71,6.93,17.54,17.54,0,0,1-9.61,2.42q-6.31,0-10.21-2.82a15,15,0,0,1-5.49-7.87q-1.12-3.49-1.13-12.71Z"/><path class="cls-1" d="M419.43,99.81h-31a10.31,10.31,0,0,0,3.58,6.51,11.27,11.27,0,0,0,7.43,2.42,12.86,12.86,0,0,0,9.29-3.78l8.11,3.81a19.06,19.06,0,0,1-7.27,6.38,22.8,22.8,0,0,1-10.06,2.06q-9,0-14.71-5.7a19.4,19.4,0,0,1-5.69-14.28,20,20,0,0,1,5.67-14.59A19,19,0,0,1,399,76.83q9.06,0,14.75,5.81T419.46,98Zm-9.64-7.59A9.65,9.65,0,0,0,406,87a10.9,10.9,0,0,0-6.52-2,11.59,11.59,0,0,0-7.07,2.26,12.63,12.63,0,0,0-3.53,5Z"/><path class="cls-2" d="M211.19,147.84l-7.32,6.46q-3.85-5.37-7.85-5.37a4.73,4.73,0,0,0-3.18,1,3,3,0,0,0-1.24,2.34,4,4,0,0,0,.88,2.47,66.46,66.46,0,0,0,7.25,6.67c3.77,3.16,6.06,5.14,6.86,6a20.84,20.84,0,0,1,4.26,5.8,14.48,14.48,0,0,1,1.25,6.06,13.89,13.89,0,0,1-4.41,10.55c-2.95,2.78-6.78,4.17-11.52,4.17a17.12,17.12,0,0,1-9.66-2.72,21.38,21.38,0,0,1-7-8.54l8.3-5q3.75,6.87,8.63,6.88a6.4,6.4,0,0,0,4.28-1.48,4.44,4.44,0,0,0,1.73-3.43,6,6,0,0,0-1.31-3.53,38.22,38.22,0,0,0-5.76-5.4q-8.49-6.92-11-10.68a13.54,13.54,0,0,1-2.48-7.5,12.24,12.24,0,0,1,4.12-9.26,14.26,14.26,0,0,1,10.16-3.87,16.13,16.13,0,0,1,7.4,1.8A26.83,26.83,0,0,1,211.19,147.84Z"/><path class="cls-2" d="M238.51,153.31A20.36,20.36,0,0,1,248.72,156a19.89,19.89,0,0,1,10.15,17.43,20.16,20.16,0,0,1-2.7,10.17,19.42,19.42,0,0,1-7.36,7.39,20.23,20.23,0,0,1-10.25,2.67,20,20,0,0,1-14.21-6,19.51,19.51,0,0,1-5.74-14.79,20,20,0,0,1,6.61-14.4A19.27,19.27,0,0,1,238.51,153.31Zm.16,9.07a9.89,9.89,0,0,0-7.48,3.13,11.08,11.08,0,0,0-3,8,11.34,11.34,0,0,0,3,8.12,10.59,10.59,0,0,0,15,0,12.39,12.39,0,0,0,.05-16.11A10,10,0,0,0,238.67,162.38Z"/><path class="cls-2" d="M262.16,154.3h3.42c0-5,.1-8,.25-8.93a7.3,7.3,0,0,1,2.66-5,9.94,9.94,0,0,1,6.44-1.85,20,20,0,0,1,6.78,1.37v7.34a13.35,13.35,0,0,0-3.43-.6,3.62,3.62,0,0,0-2.47.71,3.08,3.08,0,0,0-.56,2.19l0,4.8h6.11v8.15h-6.11V192.7h-9.63V162.45h-3.42Z"/><path class="cls-2" d="M288.13,140.15h9.63V154.3h5.72v8.29h-5.72V192.7h-9.63V162.59h-4.94V154.3h4.94Z"/><polygon class="cls-3" points="89.05 12.31 60.57 48.99 94.23 48.99 89.05 12.31"/><path class="cls-1" d="M46.23,120.69v-55a8.84,8.84,0,0,0-8.83-8.83H5.74v64A73.56,73.56,0,0,0,73.37,194v-40.8A33.11,33.11,0,0,1,46.23,120.69Z"/><path class="cls-2" d="M120.66,12.31H89.05V137.84h40.49V21.19A8.89,8.89,0,0,0,120.66,12.31Z"/><path class="cls-1" d="M124.09,193.51a5.45,5.45,0,1,1,3.85-1.59A5.42,5.42,0,0,1,124.09,193.51Z"/><path class="cls-1" d="M94.5,164.46a5.45,5.45,0,1,1,3.84-9.3,5.44,5.44,0,0,1,0,7.7A5.42,5.42,0,0,1,94.5,164.46Z"/><path class="cls-1" d="M123.85,164.3a5.45,5.45,0,1,1,3.85-9.3,5.45,5.45,0,0,1-3.85,9.3Z"/><path class="cls-1" d="M94.64,193.51a5.44,5.44,0,0,1-3.85-9.3,4.08,4.08,0,0,1,.76-.62l.27-.18a6.58,6.58,0,0,1,.59-.3l.32-.14a6,6,0,0,1,.66-.19l.14,0,.08,0,1.22-.08.49.05H96a8,8,0,0,0,7.93-8.14v-.13a1.11,1.11,0,0,1,0-.17,1.49,1.49,0,0,0,0-.21v-.13a3,3,0,0,1,0-.31l.09-1.21,0-.09,0-.08a4.07,4.07,0,0,1,.2-.68c0-.13.09-.22.13-.32a5.7,5.7,0,0,1,.32-.6,2.26,2.26,0,0,1,.16-.26,4.82,4.82,0,0,1,.63-.77,5.4,5.4,0,0,1,3.85-1.6,5.44,5.44,0,0,1,3.85,9.3,4.62,4.62,0,0,1-.77.62,1.92,1.92,0,0,1-.26.17,4.75,4.75,0,0,1-.59.31l-.31.14a5.9,5.9,0,0,1-.67.19l-.13,0-.08,0-1.23.09-.45-.05h-.68A8,8,0,0,0,100,187v.13s0,.11,0,.17a1.49,1.49,0,0,0,0,.21,1.76,1.76,0,0,0,0,.19,2,2,0,0,1,0,.25v0l-.09,1.16s0,.16-.06.21a3.79,3.79,0,0,1-.2.67,2.88,2.88,0,0,1-.13.31,5.71,5.71,0,0,1-.31.6l-.17.28a6.19,6.19,0,0,1-.62.75,5.42,5.42,0,0,1-3.85,1.6Z"/><path class="cls-1" d="M109.35,193.51a5.45,5.45,0,0,1-3.86-9.3,5.58,5.58,0,0,1,.78-.63,3,3,0,0,1,.26-.16,5.58,5.58,0,0,1,.59-.31l.31-.14a6.36,6.36,0,0,1,.66-.19l.22-.06,1.23-.09.46.05h.68a8,8,0,0,0,7.92-8.14v-.26l0,0v0c0-.06,0-.12,0-.18l0-.18a2.66,2.66,0,0,1,0-.28l.08-1.18.06-.22a5.64,5.64,0,0,1,.2-.67c0-.11.09-.21.14-.32a5.67,5.67,0,0,1,.31-.59l0,0,.14-.21a4.94,4.94,0,0,1,.63-.78,5.44,5.44,0,0,1,7.7,7.7,4.82,4.82,0,0,1-.77.63l-.18.11-.09.06a6.36,6.36,0,0,1-.58.3l-.32.14a5.41,5.41,0,0,1-.66.19l-.14,0-.09,0-1.21.08a5.14,5.14,0,0,1-.55-.06H123l-.1,0h-.27a8,8,0,0,0-7.92,8.14v.12a1.37,1.37,0,0,1,0,.19,1.11,1.11,0,0,0,0,.19c0,.05,0,.12,0,.18a1.33,1.33,0,0,1,0,.28l-.09,1.19,0,.19a7.05,7.05,0,0,1-.2.68c0,.1-.08.2-.13.3v0a4.63,4.63,0,0,1-.31.58c0,.09-.11.18-.17.27a5.1,5.1,0,0,1-.63.77,5.41,5.41,0,0,1-3.84,1.59Z"/><path class="cls-1" d="M94.64,178.8a5.45,5.45,0,0,1-3.86-9.3,5.92,5.92,0,0,1,.77-.63l.27-.16a4.14,4.14,0,0,1,.59-.31l.32-.14a5.54,5.54,0,0,1,.65-.19l.14,0,.08,0,1.23-.09.51.06H96a8,8,0,0,0,7.92-8.14v-.12a.71.71,0,0,1,0-.2,1,1,0,0,1,0-.17l0-.17a1.53,1.53,0,0,1,0-.3l.08-1.14v-.05a1.43,1.43,0,0,1,0-.18,5.56,5.56,0,0,1,.2-.69c0-.11.09-.21.14-.32a4.82,4.82,0,0,1,.31-.59l0,0c0-.08.09-.16.14-.24a5.18,5.18,0,0,1,.63-.76,5.44,5.44,0,1,1,7.7,7.7,4.62,4.62,0,0,1-.77.62l-.22.15,0,0a4.72,4.72,0,0,1-.58.31l-.31.14a5.9,5.9,0,0,1-.67.19l-.15,0-.08,0-1.21.08-.49-.05h-.65a8,8,0,0,0-7.92,8.14v.12c0,.07,0,.13,0,.19s0,.13,0,.19a1,1,0,0,1,0,.18,2.48,2.48,0,0,1,0,.27l-.09,1.19,0,.09,0,.11a5.31,5.31,0,0,1-.19.68c0,.11-.09.21-.14.32a5.58,5.58,0,0,1-.31.59c-.06.09-.11.18-.17.26a4.94,4.94,0,0,1-.62.78,5.45,5.45,0,0,1-3.85,1.59Z"/></svg>